<svg xmlns="http://www.w3.org/2000/svg" xmlns:xlink="http://www.w3.org/1999/xlink" width="43" zoomAndPan="magnify" viewBox="0 0 32.25 32.249998" height="43" preserveAspectRatio="xMidYMid meet" version="1.0"><defs><clipPath id="abb1cef324"><path d="M 0.207031 0.355469 L 31.515625 0.355469 L 31.515625 31.515625 L 0.207031 31.515625 Z M 0.207031 0.355469 " clip-rule="nonzero"/></clipPath><clipPath id="e0d18fec96"><path d="M 10 7 L 22.339844 7 L 22.339844 25 L 10 25 Z M 10 7 " clip-rule="nonzero"/></clipPath></defs><g clip-path="url(#abb1cef324)"><path fill="#675bfb" d="M 31.726562 16.113281 C 31.726562 16.628906 31.699219 17.144531 31.648438 17.660156 C 31.597656 18.171875 31.523438 18.683594 31.421875 19.1875 C 31.320312 19.695312 31.195312 20.195312 31.046875 20.6875 C 30.898438 21.183594 30.722656 21.667969 30.527344 22.144531 C 30.328125 22.621094 30.109375 23.085938 29.863281 23.542969 C 29.621094 23.996094 29.355469 24.441406 29.070312 24.867188 C 28.78125 25.296875 28.476562 25.710938 28.148438 26.109375 C 27.820312 26.511719 27.476562 26.890625 27.109375 27.257812 C 26.746094 27.621094 26.363281 27.96875 25.964844 28.296875 C 25.566406 28.621094 25.152344 28.929688 24.722656 29.214844 C 24.292969 29.503906 23.851562 29.769531 23.394531 30.011719 C 22.941406 30.253906 22.472656 30.476562 21.996094 30.671875 C 21.519531 30.871094 21.035156 31.042969 20.542969 31.195312 C 20.046875 31.34375 19.546875 31.46875 19.042969 31.570312 C 18.535156 31.671875 18.023438 31.746094 17.511719 31.796875 C 17 31.847656 16.484375 31.871094 15.96875 31.871094 C 15.449219 31.871094 14.9375 31.847656 14.421875 31.796875 C 13.910156 31.746094 13.398438 31.671875 12.894531 31.570312 C 12.386719 31.46875 11.886719 31.34375 11.394531 31.195312 C 10.898438 31.042969 10.414062 30.871094 9.9375 30.671875 C 9.460938 30.476562 8.992188 30.253906 8.539062 30.011719 C 8.082031 29.769531 7.640625 29.503906 7.210938 29.214844 C 6.78125 28.929688 6.367188 28.621094 5.96875 28.296875 C 5.570312 27.96875 5.1875 27.621094 4.824219 27.257812 C 4.460938 26.890625 4.113281 26.511719 3.785156 26.109375 C 3.457031 25.710938 3.152344 25.296875 2.863281 24.867188 C 2.578125 24.441406 2.3125 23.996094 2.070312 23.542969 C 1.824219 23.085938 1.605469 22.621094 1.40625 22.144531 C 1.210938 21.667969 1.035156 21.183594 0.886719 20.6875 C 0.738281 20.195312 0.613281 19.695312 0.511719 19.1875 C 0.410156 18.683594 0.335938 18.171875 0.285156 17.660156 C 0.234375 17.144531 0.207031 16.628906 0.207031 16.113281 C 0.207031 15.597656 0.234375 15.082031 0.285156 14.570312 C 0.335938 14.054688 0.410156 13.546875 0.511719 13.039062 C 0.613281 12.535156 0.738281 12.035156 0.886719 11.539062 C 1.035156 11.046875 1.210938 10.558594 1.40625 10.082031 C 1.605469 9.605469 1.824219 9.140625 2.070312 8.683594 C 2.3125 8.230469 2.578125 7.789062 2.863281 7.359375 C 3.152344 6.929688 3.457031 6.515625 3.785156 6.117188 C 4.113281 5.71875 4.460938 5.335938 4.824219 4.972656 C 5.1875 4.605469 5.570312 4.261719 5.96875 3.933594 C 6.367188 3.605469 6.78125 3.296875 7.210938 3.011719 C 7.640625 2.722656 8.082031 2.460938 8.539062 2.214844 C 8.992188 1.972656 9.460938 1.753906 9.9375 1.554688 C 10.414062 1.359375 10.898438 1.183594 11.394531 1.035156 C 11.886719 0.882812 12.386719 0.757812 12.894531 0.660156 C 13.398438 0.558594 13.910156 0.480469 14.421875 0.429688 C 14.9375 0.378906 15.449219 0.355469 15.96875 0.355469 C 16.484375 0.355469 17 0.378906 17.511719 0.429688 C 18.023438 0.480469 18.535156 0.558594 19.042969 0.660156 C 19.546875 0.757812 20.046875 0.882812 20.542969 1.035156 C 21.035156 1.183594 21.519531 1.359375 21.996094 1.554688 C 22.472656 1.753906 22.941406 1.972656 23.394531 2.214844 C 23.851562 2.460938 24.292969 2.722656 24.722656 3.011719 C 25.152344 3.296875 25.566406 3.605469 25.964844 3.933594 C 26.363281 4.261719 26.746094 4.605469 27.109375 4.972656 C 27.476562 5.335938 27.820312 5.71875 28.148438 6.117188 C 28.476562 6.515625 28.78125 6.929688 29.070312 7.359375 C 29.355469 7.789062 29.621094 8.230469 29.863281 8.683594 C 30.109375 9.140625 30.328125 9.605469 30.527344 10.082031 C 30.722656 10.558594 30.898438 11.046875 31.046875 11.539062 C 31.195312 12.035156 31.320312 12.535156 31.421875 13.039062 C 31.523438 13.546875 31.597656 14.054688 31.648438 14.570312 C 31.699219 15.082031 31.726562 15.597656 31.726562 16.113281 Z M 31.726562 16.113281 " fill-opacity="1" fill-rule="nonzero"/></g><g clip-path="url(#e0d18fec96)"><path fill="#ffffff" d="M 22.339844 16.039062 L 14.039062 7.628906 C 12.4375 6.003906 9.144531 9.007812 11.078125 10.898438 L 16.328125 16.039062 L 10.90625 21.097656 C 9.257812 22.636719 12.3125 25.792969 13.957031 24.195312 Z M 22.339844 16.039062 " fill-opacity="1" fill-rule="nonzero"/></g></svg>