<svg xmlns="http://www.w3.org/2000/svg" xmlns:xlink="http://www.w3.org/1999/xlink" width="44" zoomAndPan="magnify" viewBox="0 0 33 32.249999" height="43" preserveAspectRatio="xMidYMid meet" version="1.0"><defs><clipPath id="e03b919956"><path d="M 1.066406 0.355469 L 32.074219 0.355469 L 32.074219 31.363281 L 1.066406 31.363281 Z M 1.066406 0.355469 " clip-rule="nonzero"/></clipPath><clipPath id="b33a3bed8a"><path d="M 10.003906 7 L 22 7 L 22 25 L 10.003906 25 Z M 10.003906 7 " clip-rule="nonzero"/></clipPath></defs><g clip-path="url(#e03b919956)"><path fill="#675bfb" d="M 32.074219 15.859375 C 32.074219 16.367188 32.050781 16.875 32 17.378906 C 31.949219 17.882812 31.875 18.386719 31.777344 18.882812 C 31.679688 19.382812 31.554688 19.875 31.40625 20.359375 C 31.261719 20.84375 31.089844 21.324219 30.894531 21.792969 C 30.699219 22.261719 30.484375 22.71875 30.246094 23.167969 C 30.003906 23.613281 29.742188 24.050781 29.460938 24.472656 C 29.179688 24.894531 28.878906 25.300781 28.554688 25.695312 C 28.234375 26.085938 27.894531 26.460938 27.535156 26.820312 C 27.175781 27.179688 26.800781 27.519531 26.40625 27.84375 C 26.015625 28.164062 25.605469 28.46875 25.183594 28.75 C 24.761719 29.03125 24.328125 29.292969 23.878906 29.53125 C 23.433594 29.769531 22.972656 29.988281 22.503906 30.183594 C 22.035156 30.375 21.558594 30.546875 21.070312 30.695312 C 20.585938 30.84375 20.09375 30.964844 19.597656 31.0625 C 19.097656 31.164062 18.597656 31.238281 18.089844 31.289062 C 17.585938 31.335938 17.078125 31.363281 16.570312 31.363281 C 16.0625 31.363281 15.558594 31.335938 15.050781 31.289062 C 14.546875 31.238281 14.042969 31.164062 13.546875 31.0625 C 13.046875 30.964844 12.558594 30.84375 12.070312 30.695312 C 11.585938 30.546875 11.109375 30.375 10.636719 30.183594 C 10.167969 29.988281 9.710938 29.769531 9.261719 29.53125 C 8.816406 29.292969 8.378906 29.03125 7.957031 28.75 C 7.535156 28.46875 7.128906 28.164062 6.734375 27.84375 C 6.34375 27.519531 5.96875 27.179688 5.609375 26.820312 C 5.25 26.460938 4.910156 26.085938 4.585938 25.695312 C 4.265625 25.300781 3.960938 24.894531 3.679688 24.472656 C 3.398438 24.050781 3.136719 23.613281 2.898438 23.167969 C 2.660156 22.71875 2.441406 22.261719 2.25 21.792969 C 2.054688 21.324219 1.882812 20.84375 1.734375 20.359375 C 1.589844 19.875 1.464844 19.382812 1.367188 18.882812 C 1.265625 18.386719 1.191406 17.882812 1.144531 17.378906 C 1.09375 16.875 1.066406 16.367188 1.066406 15.859375 C 1.066406 15.351562 1.09375 14.84375 1.144531 14.339844 C 1.191406 13.835938 1.265625 13.332031 1.367188 12.835938 C 1.464844 12.335938 1.589844 11.84375 1.734375 11.359375 C 1.882812 10.871094 2.054688 10.394531 2.25 9.925781 C 2.441406 9.457031 2.660156 9 2.898438 8.550781 C 3.136719 8.101562 3.398438 7.667969 3.679688 7.246094 C 3.960938 6.824219 4.265625 6.417969 4.585938 6.023438 C 4.910156 5.632812 5.25 5.253906 5.609375 4.894531 C 5.96875 4.539062 6.34375 4.195312 6.734375 3.875 C 7.128906 3.550781 7.535156 3.25 7.957031 2.96875 C 8.378906 2.6875 8.816406 2.425781 9.261719 2.1875 C 9.710938 1.945312 10.167969 1.730469 10.636719 1.535156 C 11.109375 1.339844 11.585938 1.171875 12.070312 1.023438 C 12.558594 0.875 13.046875 0.753906 13.546875 0.652344 C 14.042969 0.554688 14.546875 0.480469 15.050781 0.429688 C 15.558594 0.378906 16.0625 0.355469 16.570312 0.355469 C 17.078125 0.355469 17.585938 0.378906 18.089844 0.429688 C 18.597656 0.480469 19.097656 0.554688 19.597656 0.652344 C 20.09375 0.753906 20.585938 0.875 21.070312 1.023438 C 21.558594 1.171875 22.035156 1.339844 22.503906 1.535156 C 22.972656 1.730469 23.433594 1.945312 23.878906 2.1875 C 24.328125 2.425781 24.761719 2.6875 25.183594 2.96875 C 25.605469 3.25 26.015625 3.550781 26.40625 3.875 C 26.800781 4.195312 27.175781 4.539062 27.535156 4.894531 C 27.894531 5.253906 28.234375 5.632812 28.554688 6.023438 C 28.878906 6.417969 29.179688 6.824219 29.460938 7.246094 C 29.742188 7.667969 30.003906 8.101562 30.246094 8.550781 C 30.484375 9 30.699219 9.457031 30.894531 9.925781 C 31.089844 10.394531 31.261719 10.871094 31.40625 11.359375 C 31.554688 11.84375 31.679688 12.335938 31.777344 12.835938 C 31.875 13.332031 31.949219 13.835938 32 14.339844 C 32.050781 14.84375 32.074219 15.351562 32.074219 15.859375 Z M 32.074219 15.859375 " fill-opacity="1" fill-rule="nonzero"/></g><g clip-path="url(#b33a3bed8a)"><path fill="#ffffff" d="M 9.992188 16.113281 L 18.351562 7.648438 C 19.964844 6.011719 23.28125 9.035156 21.335938 10.941406 L 16.050781 16.113281 L 21.507812 21.199219 C 23.167969 22.75 20.089844 25.929688 18.4375 24.320312 Z M 9.992188 16.113281 " fill-opacity="1" fill-rule="nonzero"/></g></svg>